<svg height="800" viewBox="0 0 512.026 512.026" width="800" xmlns="http://www.w3.org/2000/svg"><path d="m98.142 337.318-60.723 35.046c-4.079 2.355-5.478 7.569-3.123 11.657 1.579 2.739 4.446 4.267 7.398 4.267 1.442 0 2.91-.367 4.258-1.143l60.723-35.038c4.079-2.355 5.478-7.578 3.123-11.657-2.355-4.087-7.577-5.487-11.656-3.132z"/><path d="m119.475 256.021c0-4.71-3.823-8.533-8.533-8.533l-102.409-.009c-4.71 0-8.533 3.823-8.533 8.533 0 4.719 3.823 8.533 8.533 8.533l102.409.009c4.71.001 8.533-3.822 8.533-8.533z"/><path d="m146.236 82.948c1.579 2.739 4.446 4.267 7.398 4.267 1.442 0 2.918-.367 4.258-1.143 4.079-2.355 5.478-7.578 3.123-11.656l-21.35-36.983c-2.364-4.079-7.586-5.487-11.657-3.123-4.087 2.355-5.478 7.578-3.123 11.657z"/><path d="m37.427 139.669 86.315 49.852c1.34.776 2.807 1.143 4.258 1.143 2.953 0 5.82-1.527 7.398-4.267 2.355-4.079.964-9.301-3.123-11.648l-86.315-49.86c-4.07-2.364-9.31-.964-11.656 3.123-2.355 4.08-.964 9.302 3.123 11.657z"/><path d="m376.619 186.398c1.579 2.739 4.446 4.267 7.398 4.267 1.442 0 2.91-.367 4.258-1.143l86.332-49.835c4.087-2.364 5.478-7.578 3.123-11.665-2.355-4.079-7.578-5.478-11.657-3.123l-86.332 49.843c-4.087 2.355-5.478 7.577-3.122 11.656z"/><path d="m354.142 86.071c1.348.777 2.816 1.143 4.258 1.143 2.953 0 5.82-1.527 7.398-4.267l21.35-36.983c2.355-4.079.956-9.301-3.123-11.657-4.096-2.364-9.301-.956-11.657 3.123l-21.35 36.983c-2.354 4.081-.964 9.303 3.124 11.658z"/><path d="m344.038 495.381c-.23-.077-23.868-8.073-39.33-23.535-15.326-15.326-23.1-30.524-23.1-45.167v-153.6c0-1.749.358-17.067 12.8-17.067 9.156 0 12.774 17.741 12.826 17.732l8.533 110.925c.358 4.685 4.395 8.235 9.165 7.851 4.693-.358 8.218-4.463 7.851-9.165l-8.627-111.684c-2.022-12.151-10.564-32.725-29.747-32.725-23.629 0-29.867 22.332-29.867 34.133v153.6c0 19.337 9.455 38.588 28.1 57.233 18.278 18.287 44.877 27.29 46.003 27.665.896.299 1.809.435 2.696.435 3.576 0 6.904-2.261 8.098-5.837 1.494-4.47-.929-9.3-5.401-10.794z"/><path d="m217.609 238.946c-19.183 0-27.725 20.574-29.841 33.476l-8.533 110.933c-.367 4.702 3.157 8.806 7.851 9.165 4.608.35 8.806-3.157 9.165-7.851l8.439-110.182c.034-.188 3.661-18.475 12.919-18.475 12.006 0 12.774 14.251 12.8 17.067v153.6c0 14.643-7.774 29.841-23.1 45.167-15.377 15.377-39.108 23.458-39.339 23.543-4.463 1.502-6.878 6.332-5.385 10.795 1.195 3.567 4.523 5.828 8.09 5.828.896 0 1.801-.145 2.697-.435 1.126-.375 27.725-9.378 46.003-27.665 18.645-18.645 28.1-37.897 28.1-57.233v-153.6c-0-11.801-6.238-34.133-29.866-34.133z"/><path d="m491.529 496.653-102.494-76.868c-5.402-3.942-11.247-17.894-13.653-28.501l-25.677-171.076c-1.86-9.318-3.618-18.33-5.316-26.999-15.223-77.901-24.414-124.928-54.246-124.928-17.946 0-25.6 7.654-25.6 25.6 0 17.195 8.209 124.109 8.559 128.657.358 4.685 4.471 8.209 9.165 7.851 4.693-.358 8.218-4.463 7.851-9.165-.085-1.109-8.508-110.797-8.508-127.343 0-8.533.162-8.533 8.533-8.533 15.778 0 26.325 53.982 37.504 111.138 1.69 8.687 3.456 17.724 5.257 26.658l25.711 171.281c.674 2.97 6.938 29.363 20.275 39.083l102.4 76.8c1.536 1.152 3.336 1.707 5.111 1.707 2.594 0 5.163-1.178 6.835-3.413 2.824-3.774 2.064-9.125-1.707-11.949z"/><path d="m466.057 387.162c1.348.777 2.816 1.143 4.258 1.143 2.953 0 5.82-1.527 7.398-4.267 2.355-4.079.964-9.301-3.123-11.657l-60.715-35.063c-4.096-2.355-9.301-.956-11.657 3.132-2.355 4.079-.964 9.293 3.123 11.657z"/><path d="m503.492 247.497h-102.417c-4.71 0-8.533 3.823-8.533 8.533s3.823 8.533 8.533 8.533h102.417c4.71 0 8.533-3.814 8.533-8.533.001-4.711-3.822-8.533-8.533-8.533z"/><path d="m264.542 8.546c0-4.71-3.823-8.533-8.533-8.533s-8.533 3.823-8.533 8.533v25.6c0 4.71 3.823 8.533 8.533 8.533s8.533-3.823 8.533-8.533z"/><path d="m221.875 68.279c-29.833 0-39.023 47.027-54.246 124.928-1.698 8.67-3.456 17.681-5.393 27.409l-25.626 170.863c-1.348 10.624-7.97 24.738-13.722 28.373l-102.4 76.8c-3.772 2.825-4.531 8.175-1.707 11.947 1.673 2.236 4.241 3.413 6.835 3.413 1.775 0 3.575-.555 5.111-1.707l101.803-76.39c11.785-7.364 19.507-28.399 20.983-40.107l25.523-170.257c1.877-9.344 3.644-18.381 5.333-27.068 11.179-57.156 21.726-111.138 37.504-111.138 8.371 0 8.533 0 8.533 8.533 0 16.546-8.422 126.234-8.508 127.343-.367 4.702 3.157 8.806 7.851 9.165 4.642.35 8.798-3.157 9.165-7.851.35-4.548 8.559-111.462 8.559-128.657.002-17.944-7.652-25.599-25.598-25.599z"/></svg>